<svg width="90" height="38" viewBox="0 0 90 38" fill="none" xmlns="http://www.w3.org/2000/svg">
<mask id="path-1-inside-1_2784_22984" fill="white">
<path d="M0 4C0 1.79086 1.79086 0 4 0H86C88.2091 0 90 1.79086 90 4V34C90 36.2091 88.2091 38 86 38H4C1.79086 38 0 36.2091 0 34V4Z"/>
</mask>
<path d="M0 4C0 1.79086 1.79086 0 4 0H86C88.2091 0 90 1.79086 90 4V34C90 36.2091 88.2091 38 86 38H4C1.79086 38 0 36.2091 0 34V4Z" fill="#38AEE0"/>
<path d="M4 0V1H86V0V-1H4V0ZM90 4H89V34H90H91V4H90ZM86 38V37H4V38V39H86V38ZM0 34H1V4H0H-1V34H0ZM4 38V37C2.34315 37 1 35.6569 1 34H0H-1C-1 36.7614 1.23858 39 4 39V38ZM90 34H89C89 35.6569 87.6569 37 86 37V38V39C88.7614 39 91 36.7614 91 34H90ZM86 0V1C87.6569 1 89 2.34315 89 4H90H91C91 1.23858 88.7614 -1 86 -1V0ZM4 0V-1C1.23858 -1 -1 1.23858 -1 4H0H1C1 2.34315 2.34315 1 4 1V0Z" fill="#38AEE0" mask="url(#path-1-inside-1_2784_22984)"/>
<path d="M19 24L22.836 14.662H24.166L28.058 24H26.028L25.272 22.124H21.674L20.904 24H19ZM22.248 20.542H24.656L23.452 17.476L22.248 20.542ZM28.9745 26.646V17.42L30.6265 17.168L30.7245 17.756C30.8925 17.5973 31.1118 17.448 31.3825 17.308C31.6625 17.1587 31.9985 17.084 32.3905 17.084C32.8851 17.084 33.3145 17.1727 33.6785 17.35C34.0518 17.5273 34.3598 17.77 34.6025 18.078C34.8451 18.386 35.0271 18.7547 35.1485 19.184C35.2698 19.604 35.3305 20.066 35.3305 20.57C35.3305 21.0087 35.2605 21.4427 35.1205 21.872C34.9805 22.3013 34.7611 22.684 34.4625 23.02C34.1731 23.356 33.8045 23.6313 33.3565 23.846C32.9085 24.0513 32.3718 24.154 31.7465 24.154C31.5878 24.154 31.4245 24.1353 31.2565 24.098C31.0885 24.0607 30.9391 24.014 30.8085 23.958V26.646H28.9745ZM30.7945 22.446C31.1025 22.5767 31.3871 22.642 31.6485 22.642C31.9845 22.642 32.2691 22.586 32.5025 22.474C32.7451 22.362 32.9411 22.2127 33.0905 22.026C33.2491 21.83 33.3658 21.6107 33.4405 21.368C33.5151 21.1253 33.5525 20.878 33.5525 20.626C33.5525 20.346 33.5245 20.08 33.4685 19.828C33.4125 19.5667 33.3238 19.3427 33.2025 19.156C33.0811 18.9693 32.9225 18.82 32.7265 18.708C32.5305 18.596 32.2925 18.54 32.0125 18.54C31.7605 18.54 31.5225 18.61 31.2985 18.75C31.0745 18.8807 30.9065 19.0253 30.7945 19.184V22.446ZM36.7264 26.646V17.42L38.3784 17.168L38.4764 17.756C38.6444 17.5973 38.8637 17.448 39.1344 17.308C39.4144 17.1587 39.7504 17.084 40.1424 17.084C40.6371 17.084 41.0664 17.1727 41.4304 17.35C41.8037 17.5273 42.1117 17.77 42.3544 18.078C42.5971 18.386 42.7791 18.7547 42.9004 19.184C43.0217 19.604 43.0824 20.066 43.0824 20.57C43.0824 21.0087 43.0124 21.4427 42.8724 21.872C42.7324 22.3013 42.5131 22.684 42.2144 23.02C41.9251 23.356 41.5564 23.6313 41.1084 23.846C40.6604 24.0513 40.1237 24.154 39.4984 24.154C39.3397 24.154 39.1764 24.1353 39.0084 24.098C38.8404 24.0607 38.6911 24.014 38.5604 23.958V26.646H36.7264ZM38.5464 22.446C38.8544 22.5767 39.1391 22.642 39.4004 22.642C39.7364 22.642 40.0211 22.586 40.2544 22.474C40.4971 22.362 40.6931 22.2127 40.8424 22.026C41.0011 21.83 41.1177 21.6107 41.1924 21.368C41.2671 21.1253 41.3044 20.878 41.3044 20.626C41.3044 20.346 41.2764 20.08 41.2204 19.828C41.1644 19.5667 41.0757 19.3427 40.9544 19.156C40.8331 18.9693 40.6744 18.82 40.4784 18.708C40.2824 18.596 40.0444 18.54 39.7644 18.54C39.5124 18.54 39.2744 18.61 39.0504 18.75C38.8264 18.8807 38.6584 19.0253 38.5464 19.184V22.446ZM44.4784 24V17.42L46.1304 17.168L46.2284 17.84C46.4804 17.5693 46.7324 17.3827 46.9844 17.28C47.2457 17.168 47.5164 17.112 47.7964 17.112C47.955 17.112 48.123 17.1307 48.3004 17.168C48.4777 17.2053 48.6597 17.2567 48.8464 17.322L48.5244 18.904C48.3377 18.8293 48.1604 18.7733 47.9924 18.736C47.8337 18.6893 47.675 18.666 47.5164 18.666C47.255 18.666 47.017 18.7267 46.8024 18.848C46.597 18.9693 46.4337 19.1093 46.3124 19.268V24H44.4784ZM52.519 24.154C51.9496 24.154 51.4503 24.0513 51.021 23.846C50.601 23.6407 50.2463 23.37 49.957 23.034C49.677 22.698 49.467 22.32 49.327 21.9C49.187 21.4707 49.117 21.0367 49.117 20.598C49.117 20.1593 49.187 19.73 49.327 19.31C49.467 18.89 49.677 18.5167 49.957 18.19C50.2463 17.854 50.601 17.588 51.021 17.392C51.4503 17.1867 51.9496 17.084 52.519 17.084C53.0883 17.084 53.583 17.1867 54.003 17.392C54.4323 17.588 54.787 17.854 55.067 18.19C55.3563 18.5167 55.571 18.89 55.711 19.31C55.851 19.73 55.921 20.1593 55.921 20.598C55.921 21.0367 55.851 21.4707 55.711 21.9C55.571 22.32 55.3563 22.698 55.067 23.034C54.787 23.37 54.4323 23.6407 54.003 23.846C53.583 24.0513 53.0883 24.154 52.519 24.154ZM50.909 20.598C50.909 20.8873 50.9416 21.158 51.007 21.41C51.0816 21.6527 51.1843 21.8673 51.315 22.054C51.455 22.2407 51.623 22.39 51.819 22.502C52.0243 22.6047 52.2576 22.656 52.519 22.656C52.7803 22.656 53.009 22.6047 53.205 22.502C53.4103 22.39 53.5783 22.2407 53.709 22.054C53.849 21.8673 53.9516 21.6527 54.017 21.41C54.0916 21.158 54.129 20.8873 54.129 20.598C54.129 20.318 54.0916 20.052 54.017 19.8C53.9516 19.548 53.849 19.3333 53.709 19.156C53.5783 18.9693 53.4103 18.8247 53.205 18.722C53.009 18.61 52.7803 18.554 52.519 18.554C52.2576 18.554 52.0243 18.61 51.819 18.722C51.623 18.8247 51.455 18.9693 51.315 19.156C51.1843 19.3333 51.0816 19.548 51.007 19.8C50.9416 20.052 50.909 20.318 50.909 20.598ZM59.0328 24L56.0508 17.252H57.9968L59.8588 21.732L61.6508 17.252H63.5128L60.6148 24H59.0328ZM65.5662 21.06C65.5942 21.34 65.6549 21.5827 65.7482 21.788C65.8415 21.9933 65.9582 22.1613 66.0982 22.292C66.2382 22.4227 66.3922 22.5207 66.5602 22.586C66.7375 22.642 66.9195 22.67 67.1062 22.67C67.4329 22.67 67.7269 22.614 67.9882 22.502C68.2495 22.3807 68.5202 22.124 68.8002 21.732L70.1582 22.558C69.7662 23.146 69.3182 23.5613 68.8142 23.804C68.3195 24.0373 67.7315 24.154 67.0502 24.154C66.6022 24.154 66.1775 24.084 65.7762 23.944C65.3749 23.804 65.0202 23.5893 64.7122 23.3C64.4135 23.0013 64.1755 22.6327 63.9982 22.194C63.8209 21.7553 63.7322 21.2327 63.7322 20.626C63.7322 20.0567 63.8162 19.5527 63.9842 19.114C64.1615 18.6753 64.3995 18.3067 64.6982 18.008C64.9969 17.7093 65.3422 17.4807 65.7342 17.322C66.1355 17.1633 66.5602 17.084 67.0082 17.084C67.9509 17.084 68.7069 17.4153 69.2762 18.078C69.8549 18.7313 70.1535 19.7253 70.1722 21.06H65.5662ZM68.3102 19.814C68.2915 19.59 68.2402 19.394 68.1562 19.226C68.0815 19.058 67.9835 18.918 67.8622 18.806C67.7409 18.694 67.6055 18.61 67.4562 18.554C67.3069 18.498 67.1575 18.47 67.0082 18.47C66.6909 18.47 66.3922 18.5913 66.1122 18.834C65.8322 19.0673 65.6642 19.394 65.6082 19.814H68.3102Z" fill="#F5F5F5"/>
</svg>
