<svg width="15" height="17" viewBox="0 0 15 17" fill="none" xmlns="http://www.w3.org/2000/svg">
<path d="M5 12.0833C4.41667 12.0833 3.92361 11.8819 3.52083 11.4792C3.11806 11.0764 2.91667 10.5833 2.91667 10C2.91667 9.41667 3.11806 8.92361 3.52083 8.52083C3.92361 8.11806 4.41667 7.91667 5 7.91667C5.58333 7.91667 6.07639 8.11806 6.47917 8.52083C6.88194 8.92361 7.08333 9.41667 7.08333 10C7.08333 10.5833 6.88194 11.0764 6.47917 11.4792C6.07639 11.8819 5.58333 12.0833 5 12.0833ZM1.66667 16.6667C1.20833 16.6667 0.815972 16.5035 0.489583 16.1771C0.163194 15.8507 0 15.4583 0 15V3.33333C0 2.875 0.163194 2.48264 0.489583 2.15625C0.815972 1.82986 1.20833 1.66667 1.66667 1.66667H2.5V0H4.16667V1.66667H10.8333V0H12.5V1.66667H13.3333C13.7917 1.66667 14.184 1.82986 14.5104 2.15625C14.8368 2.48264 15 2.875 15 3.33333V15C15 15.4583 14.8368 15.8507 14.5104 16.1771C14.184 16.5035 13.7917 16.6667 13.3333 16.6667H1.66667ZM1.66667 15H13.3333V6.66667H1.66667V15Z" fill="#667185"/>
</svg>
