<svg width="90" height="38" viewBox="0 0 90 38" fill="none" xmlns="http://www.w3.org/2000/svg">
<path d="M4 0.5H86C87.933 0.5 89.5 2.067 89.5 4V34C89.5 35.933 87.933 37.5 86 37.5H4C2.067 37.5 0.5 35.933 0.5 34V4L0.504883 3.82031C0.598422 1.97083 2.12727 0.5 4 0.5Z" fill="white"/>
<path d="M4 0.5H86C87.933 0.5 89.5 2.067 89.5 4V34C89.5 35.933 87.933 37.5 86 37.5H4C2.067 37.5 0.5 35.933 0.5 34V4L0.504883 3.82031C0.598422 1.97083 2.12727 0.5 4 0.5Z" stroke="#38AEE0" stroke-linecap="round"/>
<path d="M28.134 24V14.662H31.13C32.1753 14.662 32.9453 14.8953 33.44 15.362C33.9347 15.8287 34.182 16.4447 34.182 17.21C34.182 17.6207 34.1213 17.98 34 18.288C33.888 18.5867 33.7247 18.8433 33.51 19.058C33.3047 19.2727 33.0573 19.4453 32.768 19.576C32.488 19.6973 32.1847 19.786 31.858 19.842L34.406 24H33.132L30.612 19.912H29.254V24H28.134ZM29.254 18.946H31.06C32.3573 18.946 33.006 18.3673 33.006 17.21C33.006 16.678 32.8473 16.2813 32.53 16.02C32.2127 15.7587 31.7553 15.628 31.158 15.628H29.254V18.946ZM36.1455 20.598C36.1455 21.4473 36.3368 22.11 36.7195 22.586C37.1022 23.0527 37.6575 23.286 38.3855 23.286C38.8055 23.286 39.1602 23.1833 39.4495 22.978C39.7388 22.7727 39.9722 22.5207 40.1495 22.222L40.8635 22.698C40.6208 23.118 40.3035 23.468 39.9115 23.748C39.5288 24.0187 39.0108 24.154 38.3575 24.154C37.8535 24.154 37.4008 24.0793 36.9995 23.93C36.5982 23.7713 36.2528 23.5473 35.9635 23.258C35.6835 22.9593 35.4642 22.5907 35.3055 22.152C35.1562 21.7133 35.0815 21.2047 35.0815 20.626C35.0815 20.094 35.1515 19.618 35.2915 19.198C35.4408 18.7687 35.6415 18.4047 35.8935 18.106C36.1548 17.798 36.4675 17.5647 36.8315 17.406C37.2048 17.238 37.6155 17.154 38.0635 17.154C38.5582 17.154 38.9875 17.238 39.3515 17.406C39.7248 17.574 40.0328 17.812 40.2755 18.12C40.5182 18.4187 40.7002 18.7827 40.8215 19.212C40.9428 19.632 41.0035 20.094 41.0035 20.598H36.1455ZM39.7855 19.744C39.7762 19.4547 39.7202 19.2027 39.6175 18.988C39.5148 18.764 39.3842 18.582 39.2255 18.442C39.0668 18.2927 38.8848 18.1853 38.6795 18.12C38.4742 18.0453 38.2688 18.008 38.0635 18.008C37.6155 18.008 37.2282 18.1433 36.9015 18.414C36.5842 18.6753 36.3648 19.1187 36.2435 19.744H39.7855ZM43.0029 16.258C42.8069 16.258 42.6389 16.1833 42.4989 16.034C42.3589 15.8753 42.2889 15.684 42.2889 15.46C42.2889 15.2453 42.3589 15.0587 42.4989 14.9C42.6389 14.7413 42.8069 14.662 43.0029 14.662C43.1989 14.662 43.3669 14.7413 43.5069 14.9C43.6469 15.0587 43.7169 15.2453 43.7169 15.46C43.7169 15.684 43.6469 15.8753 43.5069 16.034C43.3669 16.1833 43.1989 16.258 43.0029 16.258ZM43.5489 17.224V24.028C43.5489 24.7467 43.4135 25.3113 43.1429 25.722C42.8722 26.142 42.4989 26.4873 42.0229 26.758L41.4909 25.988C41.6589 25.8667 41.8035 25.7407 41.9249 25.61C42.0555 25.4887 42.1582 25.3533 42.2329 25.204C42.3169 25.0547 42.3775 24.882 42.4149 24.686C42.4522 24.4993 42.4709 24.28 42.4709 24.028V17.42L43.5489 17.224ZM46.085 20.598C46.085 21.4473 46.2763 22.11 46.659 22.586C47.0416 23.0527 47.597 23.286 48.325 23.286C48.745 23.286 49.0996 23.1833 49.389 22.978C49.6783 22.7727 49.9116 22.5207 50.089 22.222L50.803 22.698C50.5603 23.118 50.243 23.468 49.851 23.748C49.4683 24.0187 48.9503 24.154 48.297 24.154C47.793 24.154 47.3403 24.0793 46.939 23.93C46.5376 23.7713 46.1923 23.5473 45.903 23.258C45.623 22.9593 45.4036 22.5907 45.245 22.152C45.0956 21.7133 45.021 21.2047 45.021 20.626C45.021 20.094 45.091 19.618 45.231 19.198C45.3803 18.7687 45.581 18.4047 45.833 18.106C46.0943 17.798 46.407 17.5647 46.771 17.406C47.1443 17.238 47.555 17.154 48.003 17.154C48.4976 17.154 48.927 17.238 49.291 17.406C49.6643 17.574 49.9723 17.812 50.215 18.12C50.4576 18.4187 50.6396 18.7827 50.761 19.212C50.8823 19.632 50.943 20.094 50.943 20.598H46.085ZM49.725 19.744C49.7156 19.4547 49.6596 19.2027 49.557 18.988C49.4543 18.764 49.3236 18.582 49.165 18.442C49.0063 18.2927 48.8243 18.1853 48.619 18.12C48.4136 18.0453 48.2083 18.008 48.003 18.008C47.555 18.008 47.1676 18.1433 46.841 18.414C46.5236 18.6753 46.3043 19.1187 46.183 19.744H49.725ZM57.7583 22.572C57.497 23.1133 57.1377 23.5147 56.6803 23.776C56.2323 24.028 55.7563 24.154 55.2523 24.154C54.8603 24.154 54.473 24.084 54.0903 23.944C53.717 23.804 53.3857 23.5893 53.0963 23.3C52.807 23.0107 52.5737 22.6513 52.3963 22.222C52.219 21.7833 52.1303 21.27 52.1303 20.682C52.1303 20.0567 52.219 19.52 52.3963 19.072C52.5737 18.624 52.807 18.26 53.0963 17.98C53.3857 17.6907 53.7123 17.4807 54.0763 17.35C54.4403 17.2193 54.8043 17.154 55.1683 17.154C55.5417 17.154 55.8683 17.21 56.1483 17.322C56.4377 17.434 56.6803 17.574 56.8763 17.742C57.0817 17.91 57.245 18.0873 57.3663 18.274C57.497 18.4607 57.5903 18.6287 57.6463 18.778L56.8483 19.282C56.6523 18.834 56.405 18.512 56.1063 18.316C55.8077 18.12 55.495 18.022 55.1683 18.022C54.9163 18.022 54.6737 18.0827 54.4403 18.204C54.207 18.316 53.997 18.484 53.8103 18.708C53.6237 18.932 53.4743 19.2073 53.3623 19.534C53.2503 19.8607 53.1943 20.234 53.1943 20.654C53.1943 21.074 53.2503 21.4473 53.3623 21.774C53.4743 22.1007 53.6237 22.376 53.8103 22.6C54.0063 22.824 54.2303 22.9967 54.4823 23.118C54.7437 23.23 55.019 23.286 55.3083 23.286C55.635 23.286 55.9477 23.1927 56.2463 23.006C56.5543 22.8193 56.8063 22.516 57.0023 22.096L57.7583 22.572ZM60.5952 18.204V22.474C60.5952 22.8007 60.6559 23.02 60.7772 23.132C60.9079 23.2347 61.0712 23.286 61.2672 23.286C61.4445 23.286 61.6125 23.2487 61.7712 23.174C61.9299 23.0993 62.0745 23.0107 62.2052 22.908L62.6252 23.636C62.4105 23.7947 62.1959 23.9207 61.9812 24.014C61.7759 24.1073 61.4819 24.154 61.0992 24.154C60.5952 24.154 60.2079 24.028 59.9372 23.776C59.6665 23.5147 59.5312 23.118 59.5312 22.586V18.204H58.3832V17.322H59.5312V15.6L60.6092 15.404V17.322H62.4292L62.2752 18.204H60.5952Z" fill="#38AEE0"/>
</svg>
