<svg width="24" height="24" viewBox="0 0 24 24" fill="none" xmlns="http://www.w3.org/2000/svg">
<path d="M2.22827 9.03475C2.22827 7.92087 3.46591 5.81689 5.07484 5.19807C6.68376 4.57925 9.15904 4.57925 12.5007 4.57925C16.0898 4.57925 19.6789 5.19807 19.6789 5.19807L16.8324 2.35151L18.07 0L24.7533 6.807L17.9463 13.614L16.7086 11.2625L19.5552 8.41593C19.5552 8.41593 15.966 7.79711 12.2531 7.79711C9.03527 7.79711 6.56 7.79711 4.95107 8.41593C3.34214 9.03475 2.22827 12.9952 2.22827 12.9952V9.03475Z" fill="#5856D6"/>
<path d="M22.525 15.9621C22.525 17.0759 21.2873 19.1799 19.6784 19.7987C18.0695 20.4176 15.5942 20.4176 12.2526 20.4176C8.66345 20.4176 5.07431 19.7987 5.07431 19.7987L7.92087 22.6453L6.68324 24.9968L0 18.1898L6.807 11.3828L8.04464 13.7343L5.19807 16.5809C5.19807 16.5809 8.78722 17.1997 12.5001 17.1997C15.718 17.1997 18.1933 17.1997 19.8022 16.5809C21.4111 15.9621 22.525 12.0016 22.525 12.0016V15.9621Z" fill="#5856D6"/>
</svg>
